/* XPM */
static char * wally_xpm[] = {
"32 32 418 2",
"  	c None",
". 	c #D8DBD8",
"+ 	c #DFE0DF",
"@ 	c #DEE0DE",
"# 	c #BBBFBB",
"$ 	c #FCFCFC",
"% 	c #DADADA",
"& 	c #DCDCDC",
"* 	c #DBDBDB",
"= 	c #D9D9D9",
"- 	c #D8D8D8",
"; 	c #D7D7D7",
"> 	c #D6D6D6",
", 	c #D5D5D5",
"' 	c #D4D4D4",
") 	c #D2D2D2",
"! 	c #D3D3D3",
"~ 	c #ECECEC",
"{ 	c #DEDEDE",
"] 	c #A8AAAE",
"^ 	c #ABABAD",
"/ 	c #ABACAD",
"( 	c #AAABAC",
"_ 	c #A9A9AB",
": 	c #A8A8AA",
"< 	c #A6A7A8",
"[ 	c #A5A6A7",
"} 	c #A4A4A6",
"| 	c #A2A3A5",
"1 	c #A1A1A3",
"2 	c #9FA0A2",
"3 	c #9E9EA0",
"4 	c #9C9D9F",
"5 	c #9B9C9E",
"6 	c #999A9C",
"7 	c #98999B",
"8 	c #979799",
"9 	c #959698",
"0 	c #949497",
"a 	c #8E9093",
"b 	c #CFCFCF",
"c 	c #EDEDED",
"d 	c #E2E1E1",
"e 	c #777C83",
"f 	c #6483B1",
"g 	c #6785B0",
"h 	c #6886B1",
"i 	c #6785AE",
"j 	c #6583AE",
"k 	c #6180AD",
"l 	c #5F7FAC",
"m 	c #5C7CAA",
"n 	c #597AA9",
"o 	c #5778A7",
"p 	c #5576A6",
"q 	c #5174A5",
"r 	c #4F72A4",
"s 	c #4C6FA2",
"t 	c #4A6EA1",
"u 	c #466A9F",
"v 	c #44699E",
"w 	c #41679C",
"x 	c #3E649B",
"y 	c #3C6299",
"z 	c #396098",
"A 	c #3B5375",
"B 	c #CCCCCC",
"C 	c #7A7F85",
"D 	c #718EB8",
"E 	c #758FB7",
"F 	c #7B95B5",
"G 	c #9AAEA8",
"H 	c #B2C3A6",
"I 	c #A7BAA4",
"J 	c #829AA9",
"K 	c #6B87B2",
"L 	c #6985B0",
"M 	c #6683AF",
"N 	c #6481AE",
"O 	c #617EAD",
"P 	c #5E7DAB",
"Q 	c #5C7BA9",
"R 	c #5978A8",
"S 	c #5777A7",
"T 	c #5474A6",
"U 	c #5172A5",
"V 	c #4F70A3",
"W 	c #4D6FA2",
"X 	c #4A6CA1",
"Y 	c #486B9F",
"Z 	c #44597A",
"` 	c #E1E1E1",
" .	c #7D8086",
"..	c #7C97BE",
"+.	c #8098BC",
"@.	c #A9BCAB",
"#.	c #E7EEBA",
"$.	c #FAFBE2",
"%.	c #F5F9D1",
"&.	c #CBD8A7",
"*.	c #849DAF",
"=.	c #738EB7",
"-.	c #728DB5",
";.	c #708BB4",
">.	c #6D89B3",
",.	c #6B87B1",
"'.	c #6986B1",
").	c #6482AE",
"!.	c #6280AC",
"~.	c #5F7EAB",
"{.	c #5D7CAA",
"].	c #5A7AA9",
"^.	c #5878A7",
"/.	c #5676A7",
"(.	c #4C607F",
"_.	c #7C7F85",
":.	c #859DC3",
"<.	c #8CA1BB",
"[.	c #D0DCAD",
"}.	c #FDFEF6",
"|.	c #FFFFFF",
"1.	c #F0F5C7",
"2.	c #A7BAA6",
"3.	c #7D95BB",
"4.	c #7B94BB",
"5.	c #7A93B9",
"6.	c #7792B9",
"7.	c #7690B7",
"8.	c #738DB5",
"9.	c #718CB5",
"0.	c #708AB4",
"a.	c #6D89B4",
"b.	c #6981A6",
"c.	c #6986B2",
"d.	c #6783B0",
"e.	c #6581AE",
"f.	c #6280AD",
"g.	c #556783",
"h.	c #E1E1E0",
"i.	c #7B7E83",
"j.	c #8EA4C8",
"k.	c #94A9BE",
"l.	c #D4DEAC",
"m.	c #FEFFFA",
"n.	c #F2F7CB",
"o.	c #B1C1A9",
"p.	c #879EC1",
"q.	c #879EC0",
"r.	c #859CBF",
"s.	c #849BBE",
"t.	c #8299BD",
"u.	c #7D96BB",
"v.	c #7C95BA",
"w.	c #7486A2",
"x.	c #666A72",
"y.	c #7387A9",
"z.	c #6D88B3",
"A.	c #596984",
"B.	c #CBCBCB",
"C.	c #EDECED",
"D.	c #E0E0DF",
"E.	c #7A7D82",
"F.	c #98ACCC",
"G.	c #97AAC7",
"H.	c #BDCBAC",
"I.	c #EEF4C2",
"J.	c #FBFDE6",
"K.	c #F7FAD9",
"L.	c #DAE4AD",
"M.	c #A0B3B8",
"N.	c #91A5C6",
"O.	c #91A5C5",
"P.	c #8FA3C4",
"Q.	c #8DA3C4",
"R.	c #8CA2C2",
"S.	c #8AA0C2",
"T.	c #899FC1",
"U.	c #889EC1",
"V.	c #6B7179",
"W.	c #6E7888",
"X.	c #5A5B5E",
"Y.	c #7890B5",
"Z.	c #7891B8",
"`.	c #607088",
" +	c #CACACA",
".+	c #DFDFDF",
"++	c #797C80",
"@+	c #A1B4D1",
"#+	c #9FB1CD",
"$+	c #A3B5C7",
"%+	c #BECDAE",
"&+	c #D2DDA9",
"*+	c #CBD7A9",
"=+	c #AEBEB8",
"-+	c #9EAFCB",
";+	c #9CAECB",
">+	c #9BAECB",
",+	c #9AACCA",
"'+	c #99ACC9",
")+	c #97AAC9",
"!+	c #97AAC8",
"~+	c #97AACB",
"{+	c #79818F",
"]+	c #5F6266",
"^+	c #748298",
"/+	c #4D4C4A",
"(+	c #626873",
"_+	c #89A0C4",
":+	c #879DC0",
"<+	c #69778C",
"[+	c #DFDFDE",
"}+	c #77797D",
"|+	c #ACBCD6",
"1+	c #A9B8D2",
"2+	c #A9B8D1",
"3+	c #ABBACC",
"4+	c #AAB8CD",
"5+	c #A8B7D1",
"6+	c #A7B7D1",
"7+	c #A6B6D0",
"8+	c #A6B5CF",
"9+	c #A5B4CF",
"0+	c #A4B4CF",
"a+	c #A3B3CE",
"b+	c #A2B2CE",
"c+	c #8E9BB1",
"d+	c #535251",
"e+	c #60646B",
"f+	c #8492A9",
"g+	c #4D4C4B",
"h+	c #50504F",
"i+	c #93A5C3",
"j+	c #96A8C7",
"k+	c #737E91",
"l+	c #CDCDCD",
"m+	c #EEEEEE",
"n+	c #DEDDDD",
"o+	c #76797C",
"p+	c #B7C4DC",
"q+	c #B4C0D7",
"r+	c #B4C1D7",
"s+	c #B3C0D7",
"t+	c #B3BFD6",
"u+	c #B2BFD6",
"v+	c #B1BED6",
"w+	c #B1BED4",
"x+	c #B0BDD5",
"y+	c #AFBCD4",
"z+	c #606369",
"A+	c #515151",
"B+	c #6B7079",
"C+	c #8993A5",
"D+	c #525252",
"E+	c #A6B5D1",
"F+	c #7C8595",
"G+	c #CECECE",
"H+	c #DDDDDD",
"I+	c #717276",
"J+	c #A7B4CF",
"K+	c #A4B0CA",
"L+	c #A5B0CA",
"M+	c #A4B0C9",
"N+	c #A3AFC9",
"O+	c #A2AEC9",
"P+	c #A2AEC8",
"Q+	c #A1ADC8",
"R+	c #9BA8C4",
"S+	c #98A6C5",
"T+	c #777D88",
"U+	c #4C4B49",
"V+	c #504F4E",
"W+	c #6D7380",
"X+	c #64676C",
"Y+	c #4F4F4F",
"Z+	c #768095",
"`+	c #97A5C4",
" @	c #95A3C1",
".@	c #727A8D",
"+@	c #EFEEEF",
"@@	c #DDDDDC",
"#@	c #686A6F",
"$@	c #7A8AAC",
"%@	c #7989A9",
"&@	c #7988A9",
"*@	c #7888A9",
"=@	c #7787A8",
"-@	c #7686A7",
";@	c #7383A5",
">@	c #68799E",
",@	c #66789D",
"'@	c #62708E",
")@	c #5B6374",
"!@	c #575C68",
"~@	c #575C67",
"{@	c #5E6A81",
"]@	c #66789E",
"^@	c #555F76",
"/@	c #D0D0D0",
"(@	c #EFEFEF",
"_@	c #616469",
":@	c #6B7C9F",
"<@	c #6B7B9C",
"[@	c #6A7B9C",
"}@	c #667799",
"|@	c #627396",
"1@	c #5C6E92",
"2@	c #586A90",
"3@	c #596B90",
"4@	c #57688B",
"5@	c #4E5C78",
"6@	c #444F66",
"7@	c #424E64",
"8@	c #434E65",
"9@	c #4B5A74",
"0@	c #4B5B7A",
"a@	c #586A8F",
"b@	c #4D586F",
"c@	c #D1D1D1",
"d@	c #F0EFF0",
"e@	c #DCDCDB",
"f@	c #5D6065",
"g@	c #5A6C8F",
"h@	c #5A6C8D",
"i@	c #58698B",
"j@	c #556789",
"k@	c #516386",
"l@	c #4C5F83",
"m@	c #4A5D80",
"n@	c #3B4965",
"o@	c #344159",
"p@	c #394863",
"q@	c #435474",
"r@	c #35425B",
"s@	c #384660",
"t@	c #445067",
"u@	c #F0F0F0",
"v@	c #BBBFBA",
"w@	c #D9D8D8",
"x@	c #4C4F54",
"y@	c #3C5177",
"z@	c #3D5174",
"A@	c #3D5175",
"B@	c #3E5175",
"C@	c #3E5275",
"D@	c #3F5377",
"E@	c #394B6B",
"F@	c #2F3F5A",
"G@	c #344462",
"H@	c #2B3A57",
"I@	c #25334C",
"J@	c #344768",
"K@	c #354159",
"L@	c #B5B8B4",
"M@	c #4B4E53",
"N@	c #30456A",
"O@	c #324669",
"P@	c #243759",
"Q@	c #BBBDBA",
"R@	c #B9BBB9",
"S@	c #B5B7B5",
"T@	c #B4B6B3",
"U@	c #B2B4B1",
"V@	c #ADB0AC",
"W@	c #AAACA9",
"X@	c #484B51",
"Y@	c #1F355C",
"Z@	c #21375B",
"`@	c #193057",
" #	c #A3A7A9",
".#	c #C6C6C6",
"+#	c #B9B8B9",
"@#	c #A2A2A2",
"##	c #9C9D9B",
"$#	c #474A4F",
"%#	c #43474F",
"&#	c #44484F",
"*#	c #3E424A",
"=#	c #9A9D9B",
"-#	c #C0C0C0",
";#	c #B1B1B1",
">#	c #A0A0A0",
",#	c #959795",
"'#	c #D6D6D5",
")#	c #D7D7D6",
"!#	c #D8D7D7",
"~#	c #D8D8D7",
"{#	c #D9D9D8",
"]#	c #DBDBDA",
"^#	c #DCDBDB",
"/#	c #DDDCDC",
"(#	c #DEDEDD",
"_#	c #A6A8A4",
":#	c #AEADAD",
"<#	c #9C9D9C",
"[#	c #90928F",
"}#	c #F8F8F8",
"|#	c #929691",
"1#	c #979895",
"2#	c #898C88",
"3#	c #AFB4AF",
"4#	c #A9ADA9",
"5#	c #A4A8A4",
"6#	c #9FA39F",
"7#	c #9B9F9B",
"8#	c #979B97",
"9#	c #949794",
"0#	c #919491",
"a#	c #8E928E",
"b#	c #8C908C",
"c#	c #8A8E8A",
"d#	c #898C89",
"e#	c #8A8D8A",
"f#	c #8C8F8C",
"g#	c #8E918E",
"h#	c #909490",
"i#	c #939793",
"j#	c #8B8F8A",
"k#	c #767975",
"                                                                ",
"                                                                ",
"                                                                ",
"                                                                ",
"  . + @ @ @ @ @ @ @ @ @ @ @ @ @ @ @ @ + + + + + + + + + @ #     ",
"  $ % & & & & & & & & * * % % = = - - ; ; > , , ' ' ) ! ~ #     ",
"  $ { ] ^ / / / ^ ( _ : < [ } | 1 2 3 4 5 6 7 8 9 0 a b c #     ",
"  $ d e f g h g i j k l m n o p q r s t u v w x y z A B c #     ",
"  $ d C D E F G H I J K L M N O P Q R S T U V W X Y Z B c #     ",
"  $ `  ...+.@.#.$.%.&.*.=.-.;.>.,.'.j ).!.~.{.].^./.(.B c #     ",
"  $ ` _.:.<.[.}.|.|.1.2.3.4.5.6.7.8.9.0.a.b.c.d.e.f.g.B c #     ",
"  $ h.i.j.k.l.m.|.|.n.o.p.q.r.s.t.+.u.v.w.x.y.E 9.z.A.B.C.#     ",
"  $ D.E.F.G.H.I.J.K.L.M.N.O.P.Q.R.S.T.U.V.W.X.Y.Z.Z.`. +c #     ",
"  $ .+++@+#+$+%+&+*+=+-+;+>+,+'+)+!+~+{+]+^+/+(+_+:+<+B c #     ",
"  $ [+}+|+1+1+2+3+4+5+6+7+8+9+0+a+b+c+d+e+f+g+h+i+j+k+l+m+#     ",
"  $ n+o+p+q+r+q+q+s+s+t+u+v+w+x+y+5+z+A+B+C+g+D+E+9+F+G+m+#     ",
"  $ H+I+J+K+L+K+M+M+M+N+O+P+Q+R+S+T+U+V+W+X+Y+Z+`+ @.@b +@#     ",
"  $ @@#@$@%@%@%@&@&@*@=@-@;@>@,@'@)@)@)@!@A+~@{@]@,@^@/@(@#     ",
"  $ & _@:@<@<@<@<@[@}@|@1@2@3@3@4@5@6@7@8@9@8@0@a@3@b@c@d@#     ",
"  $ e@f@g@h@i@j@k@l@l@l@l@l@l@l@l@l@m@n@o@p@q@r@s@l@t@) u@v@    ",
"  $ w@x@y@z@z@A@B@B@B@B@B@B@B@B@B@B@C@D@E@F@G@H@I@J@K@' ` L@    ",
"  $ = M@N@O@O@O@O@O@O@O@O@O@O@O@O@O@O@O@O@O@P@Q@R@S@T@U@V@W@    ",
"  $ = X@Y@Z@Z@Z@Z@Z@Z@Z@Z@Z@Z@Z@Z@Z@Z@Z@Z@Z@`@ #b .#+#@###      ",
"  $ % $#%#&#&#&#&#&#&#&#&#&#&#&#&#&#&#&#&#&#*#=#-#;#>#,#        ",
"  $ /@'#'#)#)#!#~#~#{#= = % % ]#^#^#& /#@@(#` _#:#<#[#          ",
"  }#|.|.|.|.|.|.|.|.|.|.|.|.|.|.|.|.|.|.|.|.|.|#1#2#            ",
"    3#4#5#6#7#8#9#0#a#b#c#d#d#d#d#e#f#g#h#i#j#k#                ",
"                                                                ",
"                                                                ",
"                                                                ",
"                                                                ",
"                                                                "};
